<svg xmlns="http://www.w3.org/2000/svg" viewBox="0 0 1440 320"><path fill="#0099ff" fill-opacity="1" d="M0,320L14.1,266.7C28.2,213,56,107,85,90.7C112.9,75,141,149,169,170.7C197.6,192,226,160,254,154.7C282.4,149,311,171,339,176C367.1,181,395,171,424,154.7C451.8,139,480,117,508,101.3C536.5,85,565,75,593,106.7C621.2,139,649,213,678,245.3C705.9,277,734,267,762,224C790.6,181,819,107,847,85.3C875.3,64,904,96,932,117.3C960,139,988,149,1016,133.3C1044.7,117,1073,75,1101,64C1129.4,53,1158,75,1186,80C1214.1,85,1242,75,1271,80C1298.8,85,1327,107,1355,144C1383.5,181,1412,235,1426,261.3L1440,288L1440,0L1425.9,0C1411.8,0,1384,0,1355,0C1327.1,0,1299,0,1271,0C1242.4,0,1214,0,1186,0C1157.6,0,1129,0,1101,0C1072.9,0,1045,0,1016,0C988.2,0,960,0,932,0C903.5,0,875,0,847,0C818.8,0,791,0,762,0C734.1,0,706,0,678,0C649.4,0,621,0,593,0C564.7,0,536,0,508,0C480,0,452,0,424,0C395.3,0,367,0,339,0C310.6,0,282,0,254,0C225.9,0,198,0,169,0C141.2,0,113,0,85,0C56.5,0,28,0,14,0L0,0Z"></path></svg>