<svg xmlns="http://www.w3.org/2000/svg" viewBox="0 0 1440 320"><path fill="#e2e8f0" fill-opacity="1" d="M0,96L30,106.7C60,117,120,139,180,128C240,117,300,75,360,80C420,85,480,139,540,176C600,213,660,235,720,213.3C780,192,840,128,900,117.3C960,107,1020,149,1080,154.7C1140,160,1200,128,1260,112C1320,96,1380,96,1410,96L1440,96L1440,0L1410,0C1380,0,1320,0,1260,0C1200,0,1140,0,1080,0C1020,0,960,0,900,0C840,0,780,0,720,0C660,0,600,0,540,0C480,0,420,0,360,0C300,0,240,0,180,0C120,0,60,0,30,0L0,0Z"></path></svg>